<svg version="1.1" xmlns="http://www.w3.org/2000/svg" viewBox="0 0 1353.264473722825 2666.585175640646" width="1353.264473722825" height="2666.585175640646">
  <!-- svg-source:excalidraw -->
  
  <defs>
    <style class="style-fonts">
      @font-face {
        font-family: "Virgil";
        src: url("https://excalidraw.com/Virgil.woff2");
      }
      @font-face {
        font-family: "Cascadia";
        src: url("https://excalidraw.com/Cascadia.woff2");
      }
      @font-face {
        font-family: "Assistant";
        src: url("https://excalidraw.com/Assistant-Regular.woff2");
      }
    </style>
    
  </defs>
  <rect x="0" y="0" width="1353.264473722825" height="2666.585175640646" fill="#ffffff"></rect><g stroke-linecap="round" transform="translate(494.2062886571232 375) rotate(0 254 51.5)"><path d="M25.75 0 C124.09 -0.99, 222.87 -2, 482.25 0 M25.75 0 C125.57 0.65, 225.08 0.09, 482.25 0 M482.25 0 C500.74 0.34, 509.51 6.94, 508 25.75 M482.25 0 C500.15 0.17, 509.26 7.13, 508 25.75 M508 25.75 C507.05 44.9, 508.73 60.58, 508 77.25 M508 25.75 C508.4 39.35, 508.95 54.5, 508 77.25 M508 77.25 C508.78 92.5, 500.22 102.05, 482.25 103 M508 77.25 C509.23 93.75, 500.39 102.56, 482.25 103 M482.25 103 C373.66 101.62, 266.22 101.66, 25.75 103 M482.25 103 C379.33 103.36, 277.39 103.51, 25.75 103 M25.75 103 C6.84 102.97, -1.62 94.72, 0 77.25 M25.75 103 C8.89 102.48, 1.58 95.82, 0 77.25 M0 77.25 C-0.55 59.03, 1.33 45.38, 0 25.75 M0 77.25 C0.02 59.55, -0.83 41.48, 0 25.75 M0 25.75 C0.78 9.25, 10.35 0.32, 25.75 0 M0 25.75 C-1.52 9.56, 6.83 -1.68, 25.75 0" stroke="#1e1e1e" stroke-width="2" fill="none"></path></g><g transform="translate(537.2062886571232 416) rotate(0 32.999969482421875 12.5)"><text x="0" y="0" font-family="Virgil, Segoe UI Emoji" font-size="20px" fill="#1e1e1e" text-anchor="start" style="white-space: pre;" direction="ltr" dominant-baseline="text-before-edge">Docker</text></g><g stroke-linecap="round" transform="translate(1046.2062886571232 372) rotate(0 136.5 48.5)"><path d="M24.25 0 C100.83 -0.29, 178.74 -1.46, 248.75 0 M24.25 0 C99.22 -1.5, 172.58 -1.24, 248.75 0 M248.75 0 C265.31 1.83, 273.39 6.24, 273 24.25 M248.75 0 C266.13 1.81, 273.05 6.29, 273 24.25 M273 24.25 C273.32 35.04, 272.25 47.96, 273 72.75 M273 24.25 C272.51 39.21, 272.24 54.16, 273 72.75 M273 72.75 C272.11 90, 264.75 97.6, 248.75 97 M273 72.75 C274.58 90.68, 264.55 96.1, 248.75 97 M248.75 97 C177.32 95.35, 106.4 94.16, 24.25 97 M248.75 97 C185.28 95.67, 121.44 95.66, 24.25 97 M24.25 97 C6.66 98.5, 0.5 87.2, 0 72.75 M24.25 97 C9.69 99.15, -1.34 86.92, 0 72.75 M0 72.75 C0.06 56.84, -0.48 44.27, 0 24.25 M0 72.75 C0.37 58.16, -0.93 42.14, 0 24.25 M0 24.25 C1.65 9.28, 7.74 1.91, 24.25 0 M0 24.25 C-0.85 6.31, 9.19 -0.93, 24.25 0" stroke="#1e1e1e" stroke-width="2" fill="none"></path></g><g transform="translate(1080.2062886571232 424) rotate(0 31.649986267089844 12.5)"><text x="0" y="0" font-family="Virgil, Segoe UI Emoji" font-size="20px" fill="#1e1e1e" text-anchor="start" style="white-space: pre;" direction="ltr" dominant-baseline="text-before-edge">WSL 2</text></g><g stroke-linecap="round" transform="translate(1048.2062886571232 276) rotate(0 133 40)"><path d="M20 0 C92.34 1.43, 161.6 0.26, 246 0 M20 0 C107.26 0.01, 192.23 0.74, 246 0 M246 0 C258.52 0.78, 265.76 4.72, 266 20 M246 0 C259.79 1.44, 267.14 6.41, 266 20 M266 20 C264.41 29.04, 266.01 39.17, 266 60 M266 20 C265.4 35.54, 266.98 51.96, 266 60 M266 60 C265.81 73.24, 259.96 80.7, 246 80 M266 60 C265.99 72.83, 260.54 79.88, 246 80 M246 80 C169.86 79.92, 91.41 80.07, 20 80 M246 80 C193.76 81.05, 141.51 81.4, 20 80 M20 80 C4.86 79.39, -0.97 74.42, 0 60 M20 80 C7.53 81.82, -0.7 72.87, 0 60 M0 60 C-1.64 49.65, 0.66 36.61, 0 20 M0 60 C-0.74 45.03, 0.15 29.17, 0 20 M0 20 C0.68 5.82, 4.86 -0.25, 20 0 M0 20 C-0.81 7.69, 7.39 -0.08, 20 0" stroke="#1e1e1e" stroke-width="2" fill="none"></path></g><g transform="translate(1072.2062886571232 311) rotate(0 30.069969177246094 12.5)"><text x="0" y="0" font-family="Virgil, Segoe UI Emoji" font-size="20px" fill="#1e1e1e" text-anchor="start" style="white-space: pre;" direction="ltr" dominant-baseline="text-before-edge">HyperV</text></g><g stroke-linecap="round" transform="translate(1026.2062886571232 136) rotate(0 156 174)"><path d="M32 0 C89.28 0.53, 147.65 1.9, 280 0 M32 0 C124.12 0.57, 214.54 1.29, 280 0 M280 0 C303.01 0.82, 312.9 11.35, 312 32 M280 0 C299.31 -1.89, 309.82 11.5, 312 32 M312 32 C311.85 103.96, 312.96 174.21, 312 316 M312 32 C312.81 145.19, 312.74 257.74, 312 316 M312 316 C312.03 338.89, 302.86 348.87, 280 348 M312 316 C310.51 338.85, 301.83 346.44, 280 348 M280 348 C209.45 347.62, 142.54 349.19, 32 348 M280 348 C188.11 350.2, 95.69 350.11, 32 348 M32 348 C12.23 348.87, -1.55 339.21, 0 316 M32 348 C12.94 349.19, 0.88 338.05, 0 316 M0 316 C-1.78 238.84, -2.28 162.58, 0 32 M0 316 C0.42 233.27, 1.43 152.26, 0 32 M0 32 C1.84 9.79, 9.44 1.52, 32 0 M0 32 C1.31 12.24, 9.1 -0.99, 32 0" stroke="#1e1e1e" stroke-width="2" fill="none"></path></g><g transform="translate(1063.2062886571232 160) rotate(0 55.40995788574219 12.5)"><text x="0" y="0" font-family="Virgil, Segoe UI Emoji" font-size="20px" fill="#1e1e1e" text-anchor="start" style="white-space: pre;" direction="ltr" dominant-baseline="text-before-edge">Windows OS</text></g><g stroke-linecap="round" transform="translate(1032.2062886571232 507) rotate(0 154 133.5)"><path d="M32 0 C103.49 0.2, 171.35 -2.39, 276 0 M32 0 C106.94 0.34, 181.34 -0.32, 276 0 M276 0 C295.56 -1.33, 308.21 9.56, 308 32 M276 0 C297.72 2, 306.63 9.4, 308 32 M308 32 C311.24 110.62, 310.53 188.9, 308 235 M308 32 C305.59 72.11, 307.22 113.85, 308 235 M308 235 C307.56 254.94, 295.5 265.29, 276 267 M308 235 C306.75 258.29, 298.54 267.85, 276 267 M276 267 C205.9 268.18, 135.48 267.34, 32 267 M276 267 C201.31 268.7, 127.8 268.89, 32 267 M32 267 C10.75 266.49, -0.6 258.3, 0 235 M32 267 C9.65 267.1, 0.99 255.94, 0 235 M0 235 C2.9 194.31, 0.24 150.96, 0 32 M0 235 C-2.2 187, -1.05 139.99, 0 32 M0 32 C0.18 10.2, 12.14 1.98, 32 0 M0 32 C-2.16 9.94, 10.04 -1.02, 32 0" stroke="#1e1e1e" stroke-width="2" fill="none"></path></g><g transform="translate(1094.2062886571232 524) rotate(0 24.149978637695312 12.5)"><text x="0" y="0" font-family="Virgil, Segoe UI Emoji" font-size="20px" fill="#1e1e1e" text-anchor="start" style="white-space: pre;" direction="ltr" dominant-baseline="text-before-edge">Linux</text></g><g stroke-linecap="round" transform="translate(1068.2062886571232 565) rotate(0 116.5 36.5)"><path d="M18.25 0 C87.93 1.46, 153.62 -0.04, 214.75 0 M18.25 0 C76.4 -2.5, 134.6 -1.28, 214.75 0 M214.75 0 C228.85 -0.71, 233.98 6.31, 233 18.25 M214.75 0 C224.79 -2.09, 233.41 6.61, 233 18.25 M233 18.25 C233.59 32.01, 233.54 45.02, 233 54.75 M233 18.25 C233.79 30.82, 233.19 44.95, 233 54.75 M233 54.75 C232.25 68.56, 225.47 71.34, 214.75 73 M233 54.75 C233.72 68.38, 225.05 70.73, 214.75 73 M214.75 73 C159.89 72.96, 107.93 71.61, 18.25 73 M214.75 73 C172.31 75.29, 129.2 75.49, 18.25 73 M18.25 73 C6.59 74.22, -1.05 66.7, 0 54.75 M18.25 73 C7.68 72.21, 0.06 66.19, 0 54.75 M0 54.75 C1.59 46.15, -1.36 35.2, 0 18.25 M0 54.75 C0.94 45.95, 0.91 39.36, 0 18.25 M0 18.25 C-1.88 6.81, 5.28 0.69, 18.25 0 M0 18.25 C-1.7 6.57, 4.87 1.31, 18.25 0" stroke="#1e1e1e" stroke-width="2" fill="none"></path></g><g stroke-linecap="round" transform="translate(542.2062886571232 248) rotate(0 56 53.5)"><path d="M26.75 0 C41.11 0.2, 52.53 -0.53, 85.25 0 M26.75 0 C50.32 0.97, 72.58 0.99, 85.25 0 M85.25 0 C103.45 0.39, 112.5 7.65, 112 26.75 M85.25 0 C104.55 1.65, 111.89 11.15, 112 26.75 M112 26.75 C111.58 39.98, 113.71 49.04, 112 80.25 M112 26.75 C110.79 44.36, 110.85 61.7, 112 80.25 M112 80.25 C110.07 98.43, 102.79 106.74, 85.25 107 M112 80.25 C113.03 99.52, 103.35 108.42, 85.25 107 M85.25 107 C64.69 105.72, 45.48 107.16, 26.75 107 M85.25 107 C67.87 106.82, 51.46 106.19, 26.75 107 M26.75 107 C8.07 105.67, -0.23 97.65, 0 80.25 M26.75 107 C9.56 105.54, -1.37 97.06, 0 80.25 M0 80.25 C0.96 69.43, -0.58 54.46, 0 26.75 M0 80.25 C-0.55 60.16, -0.39 40.1, 0 26.75 M0 26.75 C-1.61 8.95, 9.36 1.93, 26.75 0 M0 26.75 C1.66 8, 9.7 -1.07, 26.75 0" stroke="#1e1e1e" stroke-width="2" fill="none"></path></g><g transform="translate(551.2062886571232 284) rotate(0 45.59996032714844 12.5)"><text x="0" y="0" font-family="Virgil, Segoe UI Emoji" font-size="20px" fill="#1e1e1e" text-anchor="start" style="white-space: pre;" direction="ltr" dominant-baseline="text-before-edge">Container</text></g><g stroke-linecap="round" transform="translate(674.2062886571232 250.5) rotate(0 56 53.5)"><path d="M26.75 0 C48.87 -1.37, 68.83 1.05, 85.25 0 M26.75 0 C46.39 0.25, 66.36 -0.78, 85.25 0 M85.25 0 C101.74 0.58, 112.25 9.16, 112 26.75 M85.25 0 C104.68 2.06, 112.71 8.5, 112 26.75 M112 26.75 C112.23 43.36, 110.23 61.83, 112 80.25 M112 26.75 C111.79 43.83, 111.15 60.6, 112 80.25 M112 80.25 C111.27 98.2, 102.21 106.3, 85.25 107 M112 80.25 C111.42 97.23, 102.17 107.41, 85.25 107 M85.25 107 C68.65 105.97, 47.08 106.33, 26.75 107 M85.25 107 C71.46 106.49, 55.38 107.43, 26.75 107 M26.75 107 C7.84 108.02, 0.41 100.02, 0 80.25 M26.75 107 C9.94 107.49, -0.97 95.89, 0 80.25 M0 80.25 C1.17 70.06, 1.53 58.32, 0 26.75 M0 80.25 C-0.16 63.94, 0.36 46.32, 0 26.75 M0 26.75 C-1.89 7.48, 10.92 0.47, 26.75 0 M0 26.75 C-0.65 10.17, 7.63 0.67, 26.75 0" stroke="#1e1e1e" stroke-width="2" fill="none"></path></g><g transform="translate(683.2062886571232 286.5) rotate(0 45.59996032714844 12.5)"><text x="0" y="0" font-family="Virgil, Segoe UI Emoji" font-size="20px" fill="#1e1e1e" text-anchor="start" style="white-space: pre;" direction="ltr" dominant-baseline="text-before-edge">Container</text></g><g stroke-linecap="round" transform="translate(800.2062886571232 249.5) rotate(0 56 53.5)"><path d="M26.75 0 C42.12 -0.14, 55.66 1.41, 85.25 0 M26.75 0 C45.6 1.08, 64.36 -0.17, 85.25 0 M85.25 0 C101.38 1.2, 110.14 10.21, 112 26.75 M85.25 0 C104.2 0.56, 113.22 6.78, 112 26.75 M112 26.75 C111.46 48, 109.53 70.54, 112 80.25 M112 26.75 C112.94 42.82, 111.65 59.41, 112 80.25 M112 80.25 C113.92 96.25, 101.21 105.11, 85.25 107 M112 80.25 C110.22 98.21, 103.66 106.32, 85.25 107 M85.25 107 C65.27 108.74, 47.89 106.46, 26.75 107 M85.25 107 C63.18 107.24, 41.87 106.3, 26.75 107 M26.75 107 C10.42 106.37, 1.57 96.72, 0 80.25 M26.75 107 C9.01 107.17, -0.38 98.45, 0 80.25 M0 80.25 C0.93 64.7, -0.75 45.83, 0 26.75 M0 80.25 C-0.61 62.06, -0.33 41.35, 0 26.75 M0 26.75 C-0.2 7.15, 8.13 -0.18, 26.75 0 M0 26.75 C1.32 10.6, 10.02 0.08, 26.75 0" stroke="#1e1e1e" stroke-width="2" fill="none"></path></g><g transform="translate(809.2062886571232 285.5) rotate(0 45.59996032714844 12.5)"><text x="0" y="0" font-family="Virgil, Segoe UI Emoji" font-size="20px" fill="#1e1e1e" text-anchor="start" style="white-space: pre;" direction="ltr" dominant-baseline="text-before-edge">Container</text></g><g transform="translate(1094.2062886571232 591) rotate(0 35.90995788574219 12.5)"><text x="0" y="0" font-family="Virgil, Segoe UI Emoji" font-size="20px" fill="#1e1e1e" text-anchor="start" style="white-space: pre;" direction="ltr" dominant-baseline="text-before-edge">cgroups</text></g><g transform="translate(439.2062886571232 10) rotate(0 106.31990814208984 12.5)"><text x="0" y="0" font-family="Virgil, Segoe UI Emoji" font-size="20px" fill="#1e1e1e" text-anchor="start" style="white-space: pre;" direction="ltr" dominant-baseline="text-before-edge">Architecture générale</text></g><g stroke-linecap="round" transform="translate(544.2062886571232 514) rotate(0 73.5 55.5)"><path d="M27.75 0 C46.85 -2.88, 64.73 0.98, 119.25 0 M27.75 0 C64.89 -1.33, 101.45 -0.78, 119.25 0 M119.25 0 C137.63 1.34, 145.91 10.05, 147 27.75 M119.25 0 C137.48 -2.04, 146.03 7.44, 147 27.75 M147 27.75 C145.78 42.93, 148.35 57.05, 147 83.25 M147 27.75 C146.64 46.55, 146.85 62.63, 147 83.25 M147 83.25 C148.46 102.88, 138.13 111.02, 119.25 111 M147 83.25 C147.23 99.55, 139.78 111.36, 119.25 111 M119.25 111 C94.71 109.48, 74.21 110.94, 27.75 111 M119.25 111 C90.25 111.07, 60.09 111.85, 27.75 111 M27.75 111 C8.69 109.04, 0.78 101.37, 0 83.25 M27.75 111 C7.01 113.01, 1.79 103.18, 0 83.25 M0 83.25 C0.32 63.16, -0.85 45.42, 0 27.75 M0 83.25 C-0.1 69.67, -0.28 57.09, 0 27.75 M0 27.75 C-0.06 9.24, 9.21 1.85, 27.75 0 M0 27.75 C-0.74 9.6, 10.58 1.98, 27.75 0" stroke="#1e1e1e" stroke-width="2" fill="none"></path></g><g transform="translate(571.2062886571232 546) rotate(0 57.50994873046875 12.5)"><text x="0" y="0" font-family="Virgil, Segoe UI Emoji" font-size="20px" fill="#1e1e1e" text-anchor="start" style="white-space: pre;" direction="ltr" dominant-baseline="text-before-edge">image: rocky</text></g><g stroke-linecap="round" transform="translate(707.2062886571232 518) rotate(0 108.5 94.49999999999994)"><path d="M32 0 C79.9 -2.84, 123.68 -1.42, 185 0 M32 0 C63.55 -0.67, 94.67 -0.92, 185 0 M185 0 C206.4 0.52, 216.7 11.68, 217 32 M185 0 C205.11 -0.98, 218.92 10.76, 217 32 M217 32 C216.4 60.88, 215.32 86.78, 217 157 M217 32 C215.37 71.49, 215.88 112.13, 217 157 M217 157 C217.53 178.25, 207.26 189.15, 185 189 M217 157 C217.34 176.94, 206.93 189.36, 185 189 M185 189 C138.5 191.16, 93.59 188.6, 32 189 M185 189 C123.95 189, 63.62 187.79, 32 189 M32 189 C10.11 188.89, 0.3 177.58, 0 157 M32 189 C12.32 187.8, 2.26 178.94, 0 157 M0 157 C2.25 109.05, 2.51 63.85, 0 32 M0 157 C-1.19 107.84, -0.77 58.67, 0 32 M0 32 C0.57 12.5, 9.33 -0.33, 32 0 M0 32 C-1.53 12.47, 8.65 2.02, 32 0" stroke="#1e1e1e" stroke-width="2" fill="none"></path></g><g transform="translate(724.2062886571232 545) rotate(0 66.78994750976562 12.5)"><text x="0" y="0" font-family="Virgil, Segoe UI Emoji" font-size="20px" fill="#1e1e1e" text-anchor="start" style="white-space: pre;" direction="ltr" dominant-baseline="text-before-edge">image: apache</text></g><g stroke-linecap="round" transform="translate(755.2062886571232 594) rotate(0 75.5 51)"><path d="M25.5 0 C52.2 -1.74, 77.58 0.4, 125.5 0 M25.5 0 C60.32 1.84, 92.4 0.14, 125.5 0 M125.5 0 C142.5 1.81, 151.75 7.6, 151 25.5 M125.5 0 C141.71 1.06, 149.98 7.6, 151 25.5 M151 25.5 C150.37 34.34, 148.98 46.87, 151 76.5 M151 25.5 C150.86 36.51, 150.34 48.76, 151 76.5 M151 76.5 C151.14 91.83, 142.88 103.37, 125.5 102 M151 76.5 C149.76 92.01, 140.68 103.5, 125.5 102 M125.5 102 C93.85 101.41, 63.97 103.51, 25.5 102 M125.5 102 C98.88 102.27, 70.89 103.05, 25.5 102 M25.5 102 C9.58 103.44, -1.35 95.02, 0 76.5 M25.5 102 C10.02 103.65, 0.39 92.16, 0 76.5 M0 76.5 C0.38 61.32, 0.9 49.31, 0 25.5 M0 76.5 C-0.95 61.22, -0.79 45.32, 0 25.5 M0 25.5 C-0.12 7.09, 8.96 1.19, 25.5 0 M0 25.5 C-0.3 7.86, 9.44 -0.63, 25.5 0" stroke="#1e1e1e" stroke-width="2" fill="none"></path></g><g transform="translate(767.2062886571232 617) rotate(0 65.52993774414062 12.5)"><text x="0" y="0" font-family="Virgil, Segoe UI Emoji" font-size="20px" fill="#1e1e1e" text-anchor="start" style="white-space: pre;" direction="ltr" dominant-baseline="text-before-edge">image: ubuntu</text></g><g stroke-linecap="round"><g transform="translate(595.2062886571232 533) rotate(0 -10.5 -98.5)"><path d="M0.39 -1.06 C-3.13 -34.07, -18.15 -164.57, -21.63 -197.23" stroke="#f08c00" stroke-width="2.5" fill="none" stroke-dasharray="8 10"></path></g><g transform="translate(595.2062886571232 533) rotate(0 -10.5 -98.5)"><path d="M-10.53 -174.83 C-15.27 -181.52, -16.69 -185.33, -21.63 -197.23" stroke="#f08c00" stroke-width="2.5" fill="none"></path></g><g transform="translate(595.2062886571232 533) rotate(0 -10.5 -98.5)"><path d="M-27.53 -172.93 C-27.97 -180.16, -25.09 -184.45, -21.63 -197.23" stroke="#f08c00" stroke-width="2.5" fill="none"></path></g></g><mask></mask><g stroke-linecap="round"><g transform="translate(627.2062886571232 527) rotate(0 41.5 -97)"><path d="M-0.73 0.85 C13.23 -31.44, 69.15 -160.82, 83.18 -193.33" stroke="#f08c00" stroke-width="2.5" fill="none" stroke-dasharray="8 10"></path></g><g transform="translate(627.2062886571232 527) rotate(0 41.5 -97)"><path d="M81.71 -168.38 C83.42 -174.36, 83.48 -180.15, 83.18 -193.33" stroke="#f08c00" stroke-width="2.5" fill="none"></path></g><g transform="translate(627.2062886571232 527) rotate(0 41.5 -97)"><path d="M66.01 -175.16 C71.7 -179.34, 75.71 -183.42, 83.18 -193.33" stroke="#f08c00" stroke-width="2.5" fill="none"></path></g></g><mask></mask><g stroke-linecap="round"><g transform="translate(802.2062886571232 538) rotate(0 24 -101.5)"><path d="M-0.32 -0.96 C7.52 -34.8, 38.96 -168.23, 46.94 -201.97" stroke="#f08c00" stroke-width="2.5" fill="none" stroke-dasharray="8 10"></path></g><g transform="translate(802.2062886571232 538) rotate(0 24 -101.5)"><path d="M49.87 -177.15 C47.2 -186.12, 49.66 -192.28, 46.94 -201.97" stroke="#f08c00" stroke-width="2.5" fill="none"></path></g><g transform="translate(802.2062886571232 538) rotate(0 24 -101.5)"><path d="M33.22 -181.07 C35.42 -188.87, 42.71 -193.88, 46.94 -201.97" stroke="#f08c00" stroke-width="2.5" fill="none"></path></g></g><mask></mask><g transform="translate(439.2062886571232 839) rotate(0 77.0499267578125 12.5)"><text x="0" y="0" font-family="Virgil, Segoe UI Emoji" font-size="20px" fill="#1e1e1e" text-anchor="start" style="white-space: pre;" direction="ltr" dominant-baseline="text-before-edge">Mount directory</text></g><g stroke-linecap="round" transform="translate(478.9622955530737 899.9612089210873) rotate(0 131.77364400313823 46.785533886171606)"><path d="M23.39 0 C92.21 1.33, 163.35 0.95, 240.15 0 M23.39 0 C79.24 1.53, 136.38 1.26, 240.15 0 M240.15 0 C257.63 0.28, 264.61 9.57, 263.55 23.39 M240.15 0 C253.78 0.98, 264.02 9.24, 263.55 23.39 M263.55 23.39 C265.18 40.4, 261.33 57.85, 263.55 70.18 M263.55 23.39 C263.32 39.17, 263.45 55.28, 263.55 70.18 M263.55 70.18 C264.58 85.79, 255.45 94.95, 240.15 93.57 M263.55 70.18 C263.33 84.23, 254.31 92.76, 240.15 93.57 M240.15 93.57 C178.28 92.88, 113.77 94.52, 23.39 93.57 M240.15 93.57 C176.44 95.25, 114.69 95.42, 23.39 93.57 M23.39 93.57 C9.34 92.74, 1.53 86.53, 0 70.18 M23.39 93.57 C8.52 95.58, -1.81 86.46, 0 70.18 M0 70.18 C-0.44 54.25, -1.39 34.39, 0 23.39 M0 70.18 C-0.72 58.77, -0.73 49.23, 0 23.39 M0 23.39 C0.37 7.17, 9 -1.65, 23.39 0 M0 23.39 C-0.44 7.58, 6.78 -1.71, 23.39 0" stroke="#1e1e1e" stroke-width="1" fill="none"></path></g><g transform="translate(490.0696525188555 931.9369335195499) rotate(0 115.47989654541016 12.5)"><text x="0" y="0" font-family="Virgil, Segoe UI Emoji" font-size="20px" fill="#1e1e1e" text-anchor="start" style="white-space: pre;" direction="ltr" dominant-baseline="text-before-edge">c:\users\matthias\mydir</text></g><g transform="translate(799.7293012618621 931.9369335195499) rotate(0 41.53997039794922 12.5)"><text x="0" y="0" font-family="Virgil, Segoe UI Emoji" font-size="20px" fill="#1e1e1e" text-anchor="start" style="white-space: pre;" direction="ltr" dominant-baseline="text-before-edge">/mnt/dir1</text></g><g stroke-linecap="round" transform="translate(772.8023752842095 901.9807283694113) rotate(0 79.60272492143599 45.439187587288984)"><path d="M22.72 0 C68.03 -0.02, 113.68 -0.49, 136.49 0 M22.72 0 C53.72 0.55, 84.76 -0.79, 136.49 0 M136.49 0 C151.43 1.54, 160.46 6.34, 159.21 22.72 M136.49 0 C153.36 -1.22, 157.54 8.23, 159.21 22.72 M159.21 22.72 C157.42 35.03, 160.72 51.38, 159.21 68.16 M159.21 22.72 C159.56 32.52, 160.06 40.19, 159.21 68.16 M159.21 68.16 C157.58 84.67, 152.75 90.77, 136.49 90.88 M159.21 68.16 C157.7 84.51, 150.72 91.4, 136.49 90.88 M136.49 90.88 C93.28 90.11, 51.04 89.06, 22.72 90.88 M136.49 90.88 C106.76 90.84, 75.67 90.14, 22.72 90.88 M22.72 90.88 C8.66 89.73, -0.08 82.05, 0 68.16 M22.72 90.88 C8.81 90.76, 0.5 83.74, 0 68.16 M0 68.16 C1.3 56.1, 1.21 43.42, 0 22.72 M0 68.16 C-0.94 53.14, -0.95 36.57, 0 22.72 M0 22.72 C-1.18 9.53, 8.86 -1.98, 22.72 0 M0 22.72 C1.79 9.15, 6.43 -0.21, 22.72 0" stroke="#1e1e1e" stroke-width="1" fill="none"></path></g><g stroke-linecap="round"><g transform="translate(804.7780998826721 949.4778959029328) rotate(0 -42.07332184008243 -5.321543557501627)"><path d="M-5.79 -5.37 C-11.49 -5.4, -27.66 -5.58, -39.91 -5.77 C-52.16 -5.96, -72.75 -6.67, -79.27 -6.51 M-7.11 -6.66 C-13 -6.42, -29.22 -4.4, -40.87 -4.26 C-52.52 -4.11, -70.6 -5.32, -77 -5.79" stroke="#f08c00" stroke-width="1" fill="none"></path></g><g transform="translate(804.7780998826721 949.4778959029328) rotate(0 -42.07332184008243 -5.321543557501627)"><path d="M-58.66 -11.11 C-65.45 -9.33, -70.85 -9.45, -77 -5.79 M-58.66 -11.11 C-61.61 -10.6, -66.47 -9.16, -77 -5.79" stroke="#f08c00" stroke-width="1" fill="none"></path></g><g transform="translate(804.7780998826721 949.4778959029328) rotate(0 -42.07332184008243 -5.321543557501627)"><path d="M-59.53 1.93 C-65.96 -0.59, -71.08 -5, -77 -5.79 M-59.53 1.93 C-62.2 -0.26, -66.88 -1.52, -77 -5.79" stroke="#f08c00" stroke-width="1" fill="none"></path></g></g><mask></mask><g stroke-linecap="round" transform="translate(763.0413646173104 834.3268268505586) rotate(0 104.51013145076479 103.83695830132348)"><path d="M32 0 C72.72 -0.82, 116.35 0.64, 177.02 0 M32 0 C86.18 0.71, 140.79 1.65, 177.02 0 M177.02 0 C197 -1.74, 209.19 11.32, 209.02 32 M177.02 0 C199.51 1.38, 208.79 9.11, 209.02 32 M209.02 32 C207.21 79.95, 207.73 130.17, 209.02 175.67 M209.02 32 C206.9 64, 207.42 94.75, 209.02 175.67 M209.02 175.67 C208.3 195.74, 197.44 206.18, 177.02 207.67 M209.02 175.67 C207.62 198.38, 200.5 207.58, 177.02 207.67 M177.02 207.67 C142.31 209.08, 111.55 207.01, 32 207.67 M177.02 207.67 C138.32 207.25, 99.09 207.08, 32 207.67 M32 207.67 C9.11 207.35, 0.52 198.6, 0 175.67 M32 207.67 C11.55 207.54, 1.37 196.28, 0 175.67 M0 175.67 C2.77 121.54, 1.35 65.18, 0 32 M0 175.67 C0.64 125.17, 0.22 73.62, 0 32 M0 32 C-0.27 11.62, 12.2 -0.26, 32 0 M0 32 C-2.24 12.43, 12.4 -2.16, 32 0" stroke="#1971c2" stroke-width="1" fill="none"></path></g><g transform="translate(783.9097322499913 850.1463958624297) rotate(0 44.179962158203125 12.5)"><text x="0" y="0" font-family="Virgil, Segoe UI Emoji" font-size="20px" fill="#1971c2" text-anchor="start" style="white-space: pre;" direction="ltr" dominant-baseline="text-before-edge">container</text></g><g transform="translate(437.68875437193026 1085.381183640478) rotate(0 36.249961853027344 12.5)"><text x="0" y="0" font-family="Virgil, Segoe UI Emoji" font-size="20px" fill="#1e1e1e" text-anchor="start" style="white-space: pre;" direction="ltr" dominant-baseline="text-before-edge">Volumes</text></g><g transform="translate(499.9345355246526 1158.6705711267477) rotate(0 86.10993194580078 12.5)"><text x="0" y="0" font-family="Virgil, Segoe UI Emoji" font-size="20px" fill="#1e1e1e" text-anchor="start" style="white-space: pre;" direction="ltr" dominant-baseline="text-before-edge">mariadb container</text></g><g stroke-linecap="round" transform="translate(499.9345355246526 1215.8965312187665) rotate(0 92.36470751694264 58.73190641022984)"><path d="M29.37 0 C55.78 -0.32, 82.21 2.18, 155.36 0 M29.37 0 C57.16 -0.69, 87.59 -0.74, 155.36 0 M155.36 0 C174.33 -1.67, 186.61 10.62, 184.73 29.37 M155.36 0 C175.18 2.27, 185.52 10.33, 184.73 29.37 M184.73 29.37 C186.58 40.52, 185.76 55.05, 184.73 88.1 M184.73 29.37 C185.05 45.56, 183.87 64.15, 184.73 88.1 M184.73 88.1 C184.44 108.49, 176.49 115.61, 155.36 117.46 M184.73 88.1 C184 106.75, 173.27 116.08, 155.36 117.46 M155.36 117.46 C129.81 116.48, 102.12 116.63, 29.37 117.46 M155.36 117.46 C110.57 116.63, 68.11 116.16, 29.37 117.46 M29.37 117.46 C10.78 115.48, 1.01 106.38, 0 88.1 M29.37 117.46 C9.31 117.63, -1.27 106.09, 0 88.1 M0 88.1 C-1.81 67.11, 0.54 41.09, 0 29.37 M0 88.1 C0.09 72.46, 0.82 55.11, 0 29.37 M0 29.37 C-0.56 7.84, 7.99 0.36, 29.37 0 M0 29.37 C1.29 10.77, 8.44 0.65, 29.37 0" stroke="#1e1e1e" stroke-width="1" fill="none"></path></g><g transform="translate(517.0019271310441 1245.011493370846) rotate(0 72.5299301147461 12.5)"><text x="0" y="0" font-family="Virgil, Segoe UI Emoji" font-size="20px" fill="#1e1e1e" text-anchor="start" style="white-space: pre;" direction="ltr" dominant-baseline="text-before-edge">default volume</text></g><g transform="translate(554.1486029802493 1287.177990280755) rotate(0 5 12.5)"><text x="0" y="0" font-family="Virgil, Segoe UI Emoji" font-size="20px" fill="#1e1e1e" text-anchor="start" style="white-space: pre;" direction="ltr" dominant-baseline="text-before-edge">/</text></g><g stroke-linecap="round" transform="translate(476.84335864541686 1136.5833584596528) rotate(0 236.4335719591304 111.94200965368589)"><path d="M32 0 C127.27 1.86, 222.13 1.43, 440.87 0 M32 0 C178.68 0.3, 324.95 0.33, 440.87 0 M440.87 0 C462.11 -0.17, 471.74 11.34, 472.87 32 M440.87 0 C462.37 -1.8, 474.78 10.62, 472.87 32 M472.87 32 C474.13 66.02, 475.43 102.68, 472.87 191.88 M472.87 32 C475.08 86.94, 475.27 142.56, 472.87 191.88 M472.87 191.88 C471.23 212.68, 463.17 225.3, 440.87 223.88 M472.87 191.88 C474.3 212.54, 464.14 222.64, 440.87 223.88 M440.87 223.88 C341.87 225.43, 241 224.15, 32 223.88 M440.87 223.88 C284.55 223.79, 128.28 223.7, 32 223.88 M32 223.88 C11.48 223.86, -0.35 212.79, 0 191.88 M32 223.88 C8.86 225.95, 2.22 213.29, 0 191.88 M0 191.88 C0.1 142.15, 1.12 94.45, 0 32 M0 191.88 C-0.31 145.57, 0.04 100.79, 0 32 M0 32 C-1.95 8.81, 11.57 0.17, 32 0 M0 32 C1.73 9.87, 9.04 0.25, 32 0" stroke="#1e1e1e" stroke-width="1" fill="none"></path></g><g stroke-linecap="round" transform="translate(709.7630558620549 1222.9242807037513) rotate(0 103.91029595656056 57.22596009201891)"><path d="M28.61 0 C59.44 1.96, 90.83 1.39, 179.21 0 M28.61 0 C61.37 0.93, 93.8 0.48, 179.21 0 M179.21 0 C197.26 1.47, 207.95 9.28, 207.82 28.61 M179.21 0 C196.19 -1.48, 209.21 11.31, 207.82 28.61 M207.82 28.61 C207.9 48.14, 206.95 69.09, 207.82 85.84 M207.82 28.61 C208.6 50.63, 208.14 73.27, 207.82 85.84 M207.82 85.84 C206.4 103.89, 200.1 113.13, 179.21 114.45 M207.82 85.84 C207.91 106.71, 198.56 112.4, 179.21 114.45 M179.21 114.45 C135.52 114.61, 92.43 111.76, 28.61 114.45 M179.21 114.45 C137.42 113.12, 94.16 114.33, 28.61 114.45 M28.61 114.45 C9.61 113.7, -0.87 105.38, 0 85.84 M28.61 114.45 C9.96 116.45, 1.3 105.37, 0 85.84 M0 85.84 C2.16 71.7, 1.54 59.14, 0 28.61 M0 85.84 C0.04 66.13, 0.03 47.22, 0 28.61 M0 28.61 C-1.29 11.07, 8.8 -1.12, 28.61 0 M0 28.61 C0.84 11.83, 10.21 0.31, 28.61 0" stroke="#1e1e1e" stroke-width="1" fill="none"></path></g><g transform="translate(729.8423401048685 1247.0194217951278) rotate(0 60.55995178222656 12.5)"><text x="0" y="0" font-family="Virgil, Segoe UI Emoji" font-size="20px" fill="#1e1e1e" text-anchor="start" style="white-space: pre;" direction="ltr" dominant-baseline="text-before-edge">volume data</text></g><g transform="translate(731.85026852915 1286.1740260686142) rotate(0 65.63995361328125 12.5)"><text x="0" y="0" font-family="Virgil, Segoe UI Emoji" font-size="20px" fill="#1e1e1e" text-anchor="start" style="white-space: pre;" direction="ltr" dominant-baseline="text-before-edge">/var/lib/mysql</text></g><g stroke-linecap="round" transform="translate(330.2645836728774 1478.935154799626) rotate(0 167.66202342749375 177.70166554890056)"><path d="M32 0 C98.68 -1.98, 167.27 -0.49, 303.32 0 M32 0 C114.8 -0.51, 196.69 -0.89, 303.32 0 M303.32 0 C324.68 -1.08, 335.95 10.69, 335.32 32 M303.32 0 C323.85 1.12, 333.25 11.7, 335.32 32 M335.32 32 C335.02 117.44, 335.41 204.79, 335.32 323.4 M335.32 32 C333.87 110.44, 334.61 189.82, 335.32 323.4 M335.32 323.4 C335.65 342.97, 324.18 354.51, 303.32 355.4 M335.32 323.4 C333.16 344.5, 323.16 354.51, 303.32 355.4 M303.32 355.4 C231.08 356.47, 158.13 356.95, 32 355.4 M303.32 355.4 C225.44 353.56, 148.5 353.58, 32 355.4 M32 355.4 C10.95 357.15, 0.39 344.2, 0 323.4 M32 355.4 C10.81 354.81, -2.12 344.58, 0 323.4 M0 323.4 C-2.23 209.63, -1.07 96.46, 0 32 M0 323.4 C0.01 257.82, 0 191.04, 0 32 M0 32 C0.52 9.19, 11.07 -1.91, 32 0 M0 32 C1.81 9.96, 11.25 1.08, 32 0" stroke="#1e1e1e" stroke-width="1" fill="none"></path></g><g transform="translate(364.3993668856606 1510.058045375987) rotate(0 23.459976196289062 12.5)"><text x="0" y="0" font-family="Virgil, Segoe UI Emoji" font-size="20px" fill="#1e1e1e" text-anchor="start" style="white-space: pre;" direction="ltr" dominant-baseline="text-before-edge">Build</text></g><g stroke-linecap="round" transform="translate(341.30819000642487 1751.0094562897505) rotate(0 148.58670339682084 153.6065244575242)"><path d="M32 0 C100.18 -0.18, 169.23 0.82, 265.17 0 M32 0 C95.38 -0.4, 157.19 -1.52, 265.17 0 M265.17 0 C286.73 0.95, 296.68 12.4, 297.17 32 M265.17 0 C285.71 1.8, 299.24 10.88, 297.17 32 M297.17 32 C296.04 128.2, 295.32 223.08, 297.17 275.21 M297.17 32 C297.14 126.38, 295.79 218.58, 297.17 275.21 M297.17 275.21 C296.21 295.97, 285.56 309.06, 265.17 307.21 M297.17 275.21 C297.19 298.55, 288.71 307.46, 265.17 307.21 M265.17 307.21 C210.5 304.66, 156.54 304.98, 32 307.21 M265.17 307.21 C213.64 308.18, 162.86 306.6, 32 307.21 M32 307.21 C10.33 306.55, 1.67 295.92, 0 275.21 M32 307.21 C12.67 308.38, -0.67 296.59, 0 275.21 M0 275.21 C0.16 212.91, 2.23 151.63, 0 32 M0 275.21 C-1.05 199.9, -0.55 126.16, 0 32 M0 32 C0.78 9.61, 11.2 1.57, 32 0 M0 32 C0.83 10.73, 10.79 0.22, 32 0" stroke="#1e1e1e" stroke-width="1" fill="none"></path></g><g transform="translate(355.3636889763944 1874.4970543830543) rotate(0 17.129989624023438 12.5)"><text x="0" y="0" font-family="Virgil, Segoe UI Emoji" font-size="20px" fill="#1e1e1e" text-anchor="start" style="white-space: pre;" direction="ltr" dominant-baseline="text-before-edge">Run</text></g><g transform="translate(388.49450797703685 1569.2919338922873) rotate(0 61.489967346191406 12.5)"><text x="0" y="0" font-family="Virgil, Segoe UI Emoji" font-size="20px" fill="#1e1e1e" text-anchor="start" style="white-space: pre;" direction="ltr" dominant-baseline="text-before-edge">ARG my_arg</text></g><g transform="translate(383.47468691633344 1921.6833723536665) rotate(0 82.45994567871094 12.5)"><text x="0" y="0" font-family="Virgil, Segoe UI Emoji" font-size="20px" fill="#1e1e1e" text-anchor="start" style="white-space: pre;" direction="ltr" dominant-baseline="text-before-edge">ENV my_env_var</text></g><g transform="translate(380.32791399673636 1779.6719889875183) rotate(0 82.45994567871094 12.5)"><text x="0" y="0" font-family="Virgil, Segoe UI Emoji" font-size="20px" fill="#1e1e1e" text-anchor="start" style="white-space: pre;" direction="ltr" dominant-baseline="text-before-edge">ENV my_env_var</text></g><g transform="translate(192.721486609604 2139.5436063881953) rotate(0 38.359962463378906 12.5)"><text x="0" y="0" font-family="Virgil, Segoe UI Emoji" font-size="20px" fill="#1e1e1e" text-anchor="start" style="white-space: pre;" direction="ltr" dominant-baseline="text-before-edge">Network</text></g><g stroke-linecap="round" transform="translate(229.86816245880922 2190.74578120737) rotate(0 556.6981556320079 232.91969721663804)"><path d="M32 0 C324.71 1.34, 615.2 1.12, 1081.4 0 M32 0 C344.36 1.48, 655.9 1.58, 1081.4 0 M1081.4 0 C1104.01 -1.83, 1115.25 11.09, 1113.4 32 M1081.4 0 C1102.19 -0.87, 1111.81 12.2, 1113.4 32 M1113.4 32 C1116.22 176.43, 1115.9 318.13, 1113.4 433.84 M1113.4 32 C1111.28 116.98, 1111.43 201.14, 1113.4 433.84 M1113.4 433.84 C1114.14 455.23, 1103.17 466.92, 1081.4 465.84 M1113.4 433.84 C1114.47 453.37, 1101.41 467.89, 1081.4 465.84 M1081.4 465.84 C846.95 464.31, 612.1 464.22, 32 465.84 M1081.4 465.84 C685.61 469.09, 289.29 469.7, 32 465.84 M32 465.84 C11.84 465.38, 1.64 454.39, 0 433.84 M32 465.84 C9.09 465.91, 0.45 455.61, 0 433.84 M0 433.84 C2.11 337.8, 0.59 243.27, 0 32 M0 433.84 C-1.43 289.19, -1.83 143.71, 0 32 M0 32 C0.48 11.36, 10.48 1.5, 32 0 M0 32 C2.1 12.91, 10.36 0.79, 32 0" stroke="#1e1e1e" stroke-width="1" fill="none"></path></g><g transform="translate(259.9870888230297 2216.8488507230277) rotate(0 81.3699417114258 12.5)"><text x="0" y="0" font-family="Virgil, Segoe UI Emoji" font-size="20px" fill="#1e1e1e" text-anchor="start" style="white-space: pre;" direction="ltr" dominant-baseline="text-before-edge">Bridge: 172.17.0.x</text></g><g stroke-linecap="round" transform="translate(814.1753339246859 2290.138238209297) rotate(0 196.77698557957353 121.98165177509281)"><path d="M32 0 C107.47 -1.48, 181.19 -2.78, 361.55 0 M32 0 C98.74 1.29, 165.64 0.7, 361.55 0 M361.55 0 C384.23 1.34, 391.66 12.01, 393.55 32 M361.55 0 C384.28 2.11, 391.91 11.36, 393.55 32 M393.55 32 C391.55 100.21, 395.17 165.53, 393.55 211.96 M393.55 32 C393.74 103.63, 394.33 173.81, 393.55 211.96 M393.55 211.96 C395.43 232.32, 383.16 245.88, 361.55 243.96 M393.55 211.96 C395.18 233.22, 382.17 246.22, 361.55 243.96 M361.55 243.96 C236.93 243.36, 115.37 243.63, 32 243.96 M361.55 243.96 C287.1 245.88, 212.72 245.22, 32 243.96 M32 243.96 C9.13 242.14, -1.11 231.6, 0 211.96 M32 243.96 C9.62 242.38, -1.55 234.24, 0 211.96 M0 211.96 C0.66 172.91, -1.06 133.63, 0 32 M0 211.96 C-2.2 144.29, -2.17 78.58, 0 32 M0 32 C1.45 12.18, 10.24 -1.07, 32 0 M0 32 C1.84 11.41, 12.87 0.9, 32 0" stroke="#1e1e1e" stroke-width="1" fill="none"></path></g><g transform="translate(898.5083277445032 2383.5069099383804) rotate(0 45.51997375488281 25)"><text x="0" y="0" font-family="Virgil, Segoe UI Emoji" font-size="20px" fill="#1e1e1e" text-anchor="start" style="white-space: pre;" direction="ltr" dominant-baseline="text-before-edge">papache</text><text x="0" y="25" font-family="Virgil, Segoe UI Emoji" font-size="20px" fill="#1e1e1e" text-anchor="start" style="white-space: pre;" direction="ltr" dominant-baseline="text-before-edge">172.17.0.2</text></g><g stroke-linecap="round" transform="translate(270.0267309444365 2276.0827392393276) rotate(0 225.89194773165332 130.51534757828858)"><path d="M32 0 C169.01 -2.26, 308.04 -1.87, 419.78 0 M32 0 C136.5 0.64, 242.09 1.06, 419.78 0 M419.78 0 C442.23 -0.14, 452.2 12.08, 451.78 32 M419.78 0 C441.22 0.83, 449.66 12.7, 451.78 32 M451.78 32 C451.85 90.58, 453.62 146.69, 451.78 229.03 M451.78 32 C452.41 79.17, 453.01 126.05, 451.78 229.03 M451.78 229.03 C450.63 249.8, 441.75 262.88, 419.78 261.03 M451.78 229.03 C453.09 248.98, 443.28 262.21, 419.78 261.03 M419.78 261.03 C312.01 261.88, 203.2 261.86, 32 261.03 M419.78 261.03 C321.86 260.38, 224.63 260.37, 32 261.03 M32 261.03 C8.87 261.03, -1.41 252.26, 0 229.03 M32 261.03 C11.96 261.16, 0.17 250.2, 0 229.03 M0 229.03 C2.39 179.89, 2.96 129.54, 0 32 M0 229.03 C-1.87 180.1, -0.27 132.48, 0 32 M0 32 C0.66 9.09, 12.55 -1.64, 32 0 M0 32 C-2.07 10.63, 10.77 0.7, 32 0" stroke="#1e1e1e" stroke-width="1" fill="none"></path></g><g transform="translate(330.2645836728774 2379.491053089818) rotate(0 72.3299331665039 12.5)"><text x="0" y="0" font-family="Virgil, Segoe UI Emoji" font-size="20px" fill="#1e1e1e" text-anchor="start" style="white-space: pre;" direction="ltr" dominant-baseline="text-before-edge">rockylinux bash</text></g><g transform="translate(339.30026158214343 2417.641693151164) rotate(0 45.20997619628906 12.5)"><text x="0" y="0" font-family="Virgil, Segoe UI Emoji" font-size="20px" fill="#1e1e1e" text-anchor="start" style="white-space: pre;" direction="ltr" dominant-baseline="text-before-edge">172.17.0.3</text></g><g stroke-linecap="round"><g transform="translate(724.8225190441652 2403.5861941811945) rotate(0 35.13874742492385 0.5019821060702725)"><path d="M0.54 0.31 C12.12 0.74, 57.47 1.85, 69.12 1.78 M-0.64 -0.58 C11.32 -0.41, 59.49 -0.13, 71.23 0.06" stroke="#1e1e1e" stroke-width="1" fill="none"></path></g><g transform="translate(724.8225190441652 2403.5861941811945) rotate(0 35.13874742492385 0.5019821060702725)"><path d="M47.65 8.37 C54.58 4.1, 61.73 4.12, 71.23 0.06 M47.65 8.37 C52.74 6.93, 57.05 4.15, 71.23 0.06" stroke="#1e1e1e" stroke-width="1" fill="none"></path></g><g transform="translate(724.8225190441652 2403.5861941811945) rotate(0 35.13874742492385 0.5019821060702725)"><path d="M47.83 -8.73 C54.59 -8.38, 61.69 -3.75, 71.23 0.06 M47.83 -8.73 C52.76 -6.7, 57.03 -6.01, 71.23 0.06" stroke="#1e1e1e" stroke-width="1" fill="none"></path></g></g><mask></mask><g stroke-linecap="round" transform="translate(797.1079423182942 2388.526730999084) rotate(0 23.59315898530599 12.549552651758404)"><path d="M6.27 0 C17.78 -0.9, 24.25 -0.74, 40.91 0 M6.27 0 C19.79 0.1, 31.93 -1.09, 40.91 0 M40.91 0 C46.89 -0.9, 46.82 2.03, 47.19 6.27 M40.91 0 C43.31 1.38, 44.92 0.71, 47.19 6.27 M47.19 6.27 C47.6 11.93, 48.46 15.22, 47.19 18.82 M47.19 6.27 C47.46 8.84, 46.66 11.53, 47.19 18.82 M47.19 18.82 C45.37 23.98, 44.8 25.95, 40.91 25.1 M47.19 18.82 C48.6 22.03, 45.9 23.84, 40.91 25.1 M40.91 25.1 C28.12 23.14, 17.4 24.3, 6.27 25.1 M40.91 25.1 C31.31 24.03, 23.23 24.7, 6.27 25.1 M6.27 25.1 C3.58 24.63, -0.04 24.91, 0 18.82 M6.27 25.1 C-0.12 24.14, -0.79 21.98, 0 18.82 M0 18.82 C0.52 14.29, 0.02 9.91, 0 6.27 M0 18.82 C0.3 13.99, 0.46 9.81, 0 6.27 M0 6.27 C-0.34 3.95, 1.71 -0.07, 6.27 0 M0 6.27 C2.28 2.49, 3.27 -0.72, 6.27 0" stroke="#1e1e1e" stroke-width="1" fill="none"></path></g><g transform="translate(827.2268686825147 2361.4196972712857) rotate(0 14.529991149902344 12.5)"><text x="0" y="0" font-family="Virgil, Segoe UI Emoji" font-size="20px" fill="#1e1e1e" text-anchor="start" style="white-space: pre;" direction="ltr" dominant-baseline="text-before-edge">80</text></g><g stroke-linecap="round" transform="translate(751.9295527719636 2131.5118926910695) rotate(0 21.083248454954287 42.166496909908574)"><path d="M10.54 0 C16.68 -1.41, 24.53 -0.75, 31.62 0 M10.54 0 C17.98 0.35, 25.31 0.59, 31.62 0 M31.62 0 C38.54 -0.3, 43.12 3.44, 42.17 10.54 M31.62 0 C39.72 0.09, 42.84 4.69, 42.17 10.54 M42.17 10.54 C40.59 37.46, 41.93 62.18, 42.17 73.79 M42.17 10.54 C43.36 33.39, 43.33 55.81, 42.17 73.79 M42.17 73.79 C43.32 79.97, 37.88 83.16, 31.62 84.33 M42.17 73.79 C43.12 83, 36.45 85.6, 31.62 84.33 M31.62 84.33 C22 85.57, 16.39 83.18, 10.54 84.33 M31.62 84.33 C24.72 84.73, 17.31 84.63, 10.54 84.33 M10.54 84.33 C5.43 82.37, -1.01 78.98, 0 73.79 M10.54 84.33 C5.15 82.43, -1.89 81.41, 0 73.79 M0 73.79 C1.34 55.53, 0.65 33.72, 0 10.54 M0 73.79 C-0.96 52.78, -0.03 31.83, 0 10.54 M0 10.54 C0.45 1.81, 2.02 -0.66, 10.54 0 M0 10.54 C1.73 2.09, 2.71 -1.16, 10.54 0" stroke="#f08c00" stroke-width="1" fill="none"></path></g><g transform="translate(799.1158707425756 2108.420715811834) rotate(0 63.149940490722656 12.5)"><text x="0" y="0" font-family="Virgil, Segoe UI Emoji" font-size="20px" fill="#1e1e1e" text-anchor="start" style="white-space: pre;" direction="ltr" dominant-baseline="text-before-edge">network host</text></g><g transform="translate(802.1277633789977 2142.555499024617) rotate(0 10.359992980957031 12.5)"><text x="0" y="0" font-family="Virgil, Segoe UI Emoji" font-size="20px" fill="#1e1e1e" text-anchor="start" style="white-space: pre;" direction="ltr" dominant-baseline="text-before-edge">81</text></g><g stroke-linecap="round"><g transform="translate(772.0088370147772 2202.7933517530582) rotate(0 11.545588439617802 88.85083277445028)"><path d="M-0.69 0.41 C3.51 30.06, 20 148.24, 24.09 177.91 M1.15 -0.42 C5.38 28.85, 19.94 146.42, 23.67 175.9" stroke="#f08c00" stroke-width="1" fill="none"></path></g><g transform="translate(772.0088370147772 2202.7933517530582) rotate(0 11.545588439617802 88.85083277445028)"><path d="M12.26 153.65 C15.29 159.98, 17.32 164.19, 23.67 175.9 M12.26 153.65 C16.53 162.19, 20.61 169.23, 23.67 175.9" stroke="#f08c00" stroke-width="1" fill="none"></path></g><g transform="translate(772.0088370147772 2202.7933517530582) rotate(0 11.545588439617802 88.85083277445028)"><path d="M29.23 151.53 C28.76 158.19, 27.29 162.84, 23.67 175.9 M29.23 151.53 C27.37 160.77, 25.31 168.57, 23.67 175.9" stroke="#f08c00" stroke-width="1" fill="none"></path></g></g><mask></mask><g stroke-linecap="round" transform="translate(10 1557.244363346601) rotate(0 110.93804544154531 57.727942198089295)"><path d="M28.86 0 C69.29 -2.53, 114.3 -0.52, 193.01 0 M28.86 0 C86.34 -0.86, 144.92 -0.91, 193.01 0 M193.01 0 C210.28 1.28, 220.19 9.61, 221.88 28.86 M193.01 0 C214.28 -1.52, 221.06 7.96, 221.88 28.86 M221.88 28.86 C222.74 39.69, 220.26 52.07, 221.88 86.59 M221.88 28.86 C221.89 47.42, 221.39 64.87, 221.88 86.59 M221.88 86.59 C219.9 107.46, 211.86 115.72, 193.01 115.46 M221.88 86.59 C223.82 107.13, 211.73 115.8, 193.01 115.46 M193.01 115.46 C127.4 116.76, 66.32 115.02, 28.86 115.46 M193.01 115.46 C145.03 114.19, 98.3 114.52, 28.86 115.46 M28.86 115.46 C10.87 114.06, 1.03 107.6, 0 86.59 M28.86 115.46 C8.3 114.99, 0.02 106.25, 0 86.59 M0 86.59 C0.03 74.12, 0.87 61.3, 0 28.86 M0 86.59 C-0.89 74.42, -0.72 61.37, 0 28.86 M0 28.86 C-1.08 10.32, 8.41 -0.57, 28.86 0 M0 28.86 C-1.15 9.56, 7.98 2.3, 28.86 0" stroke="#1e1e1e" stroke-width="1" fill="none"></path></g><g transform="translate(36.103069515657694 1631.5377150450117) rotate(0 18.1099853515625 12.5)"><text x="0" y="0" font-family="Virgil, Segoe UI Emoji" font-size="20px" fill="#1e1e1e" text-anchor="start" style="white-space: pre;" direction="ltr" dominant-baseline="text-before-edge">.env</text></g><g transform="translate(31.083248454954287 1596.3989676200877) rotate(0 73.25991821289062 12.5)"><text x="0" y="0" font-family="Virgil, Segoe UI Emoji" font-size="20px" fill="#1e1e1e" text-anchor="start" style="white-space: pre;" direction="ltr" dominant-baseline="text-before-edge">docker-compose</text></g><g stroke-linecap="round"><g transform="translate(196.73734345816672 1641.5773571664183) rotate(0 69.77551274377734 -27.107033727798353)"><path d="M1.05 -0.67 C24.25 -9.8, 115.92 -45.14, 139.18 -53.89 M0.15 1.59 C23.16 -7.99, 114.66 -46.41, 138.03 -55.85" stroke="#f08c00" stroke-width="1" fill="none"></path></g><g transform="translate(196.73734345816672 1641.5773571664183) rotate(0 69.77551274377734 -27.107033727798353)"><path d="M119.58 -38.98 C123.84 -44.79, 130.99 -47.48, 138.03 -55.85 M119.58 -38.98 C127.32 -45.5, 134.09 -51.24, 138.03 -55.85" stroke="#f08c00" stroke-width="1" fill="none"></path></g><g transform="translate(196.73734345816672 1641.5773571664183) rotate(0 69.77551274377734 -27.107033727798353)"><path d="M113.05 -54.78 C119.37 -55.95, 128.47 -53.92, 138.03 -55.85 M113.05 -54.78 C123.2 -55.25, 132.48 -54.92, 138.03 -55.85" stroke="#f08c00" stroke-width="1" fill="none"></path></g></g><mask></mask><g stroke-linecap="round"><g transform="translate(198.7452718824481 1651.6169992878251) rotate(0 68.26956642556632 116.96183071438941)"><path d="M1.16 -0.19 C23.87 39, 114.74 195.78, 137.16 234.69 M0.31 -1.33 C22.84 37.56, 113.58 193.7, 136.53 232.97" stroke="#f08c00" stroke-width="1" fill="none"></path></g><g transform="translate(198.7452718824481 1651.6169992878251) rotate(0 68.26956642556632 116.96183071438941)"><path d="M117.32 216.97 C124.13 223.79, 132.88 227.23, 136.53 232.97 M117.32 216.97 C121.68 220.95, 127.65 224.5, 136.53 232.97" stroke="#f08c00" stroke-width="1" fill="none"></path></g><g transform="translate(198.7452718824481 1651.6169992878251) rotate(0 68.26956642556632 116.96183071438941)"><path d="M132.1 208.36 C133.36 218.54, 136.6 225.19, 136.53 232.97 M132.1 208.36 C132.75 214.54, 135.07 220.21, 136.53 232.97" stroke="#f08c00" stroke-width="1" fill="none"></path></g></g><mask></mask></svg>